<svg xmlns="http://www.w3.org/2000/svg" version="1.1" xmlns:xlink="http://www.w3.org/1999/xlink" xmlns:svgjs="http://svgjs.dev/svgjs" width="1000" height="328" viewBox="0 0 1000 328"><g transform="matrix(1,0,0,1,-0.6060331161454542,0.05047572457442584)"><svg viewBox="0 0 396 130" data-background-color="#ffffff" preserveAspectRatio="xMidYMid meet" height="328" width="1000" xmlns="http://www.w3.org/2000/svg" xmlns:xlink="http://www.w3.org/1999/xlink"><g id="tight-bounds" transform="matrix(1,0,0,1,0.23998911399360168,-0.02000562254474403)"><svg viewBox="0 0 395.52 130.04001124508946" height="130.04001124508946" width="395.52"><g><svg viewBox="0 0 395.52 130.04001124508946" height="130.04001124508946" width="395.52"><g transform="matrix(1,0,0,1,0,89.40667409361532)"><svg viewBox="0 0 395.52 40.633337151474144" height="40.633337151474144" width="395.52"><g id="textblocktransform"><svg viewBox="0 0 395.52 40.633337151474144" height="40.633337151474144" width="395.52" id="textblock"><g><svg viewBox="0 0 395.52 21.915680452944834" height="21.915680452944834" width="395.52"><g transform="matrix(1,0,0,1,0,0)"><svg width="395.52" viewBox="5.420000076293945 -38.650001525878906 707.1400146484375 39.19000244140625" height="21.915680452944834" data-palette-color="url(#d9c18ac3-964b-492b-81b3-4ae1c66e54a5)"></svg></g></svg></g><g transform="matrix(1,0,0,1,0,27.08944663155424)"><svg viewBox="0 0 395.52 13.543890519919906" height="13.543890519919906" width="395.52"><g transform="matrix(1,0,0,1,0,0)"><svg width="395.52" viewBox="2 -36 1064.43994140625 36.45000076293945" height="13.543890519919906" data-palette-color="#ffdc00"><path d="M15.95-1.45Q15.95-0.8 12.93-0.4 9.9 0 6.83 0 3.75 0 2.88-0.35 2-0.7 2-1.45L2-1.45 2-32.2Q2-33.45 4.9-34.48 7.8-35.5 11.2-35.5L11.2-35.5Q15.95-35.5 15.95-33.25L15.95-33.25 15.95-22.25 20.4-22.25 20.4-32.2Q20.4-33.45 23.33-34.48 26.25-35.5 29.65-35.5L29.65-35.5Q34.35-35.5 34.35-33.25L34.35-33.25 34.35-1.45Q34.35-0.8 31.3-0.4 28.25 0 25.2 0 22.15 0 21.28-0.35 20.4-0.7 20.4-1.45L20.4-1.45 20.4-12.9 15.95-12.9 15.95-1.45ZM83.5 0L83.5 0 62.3 0Q59.85 0 59-0.35 58.15-0.7 58.15-1.45L58.15-1.45 58.15-33.1Q58.15-34.4 59.33-34.95 60.5-35.5 63.55-35.5L63.55-35.5 83.65-35.5Q84.7-35.5 84.7-32.02 84.7-28.55 84.25-26.73 83.8-24.9 83.05-24.9L83.05-24.9Q79.8-24.9 72.1-25.55L72.1-25.55 72.1-22.2Q79.5-22.5 81.75-22.5L81.75-22.5Q83.1-22.5 83.1-19.35 83.1-16.2 82.58-14.58 82.05-12.95 81.15-12.95L81.15-12.95 72.1-13.15 72.1-9.95Q80.8-10.6 84.1-10.6L84.1-10.6Q85.15-10.6 85.15-7.1 85.15-3.6 84.7-1.8 84.25 0 83.5 0ZM122.45-11.7L122.45-1.45Q122.45-0.8 119.4-0.4 116.35 0 113.28 0 110.2 0 109.33-0.35 108.45-0.7 108.45-1.45L108.45-1.45 108.45-33.6Q108.45-34.9 111.73-35.45 115-36 120-36 125-36 126.48-35.98 127.95-35.95 129.95-35.8 131.95-35.65 133.13-35.3 134.3-34.95 135.73-34.4 137.15-33.85 137.95-32.98 138.75-32.1 139.5-30.9L139.5-30.9Q140.85-28.75 140.85-24.78 140.85-20.8 139.53-18.07 138.2-15.35 136-13.95L136-13.95Q141.75-4.9 141.75-2.45 141.75 0 131.9 0L131.9 0Q129.05 0 127.95-0.25 126.85-0.5 126.55-1.35L126.55-1.35 123.3-11.65 122.45-11.7ZM122.45-28.1L122.45-19.4 123.75-19.4Q126.65-19.4 126.65-23.9L126.65-23.9Q126.65-26.2 125.88-27.15 125.1-28.1 124.1-28.1L124.1-28.1 122.45-28.1ZM178.01-1.2Q178.01-0.65 174.96-0.33 171.91 0 168.83 0 165.76 0 164.91-0.28 164.06-0.55 164.06-1.2L164.06-1.2 164.06-32.3Q164.06-33.4 166.96-34.48 169.86-35.55 173.46-35.55L173.46-35.55Q176.66-35.55 177.66-34.2L177.66-34.2Q178.01-33.7 178.01-33.2L178.01-33.2 178.01-1.2ZM223.06-1.2Q223.06-0.65 219.98-0.33 216.91 0 213.83 0 210.76 0 209.93-0.28 209.11-0.55 209.11-1.2L209.11-1.2 209.11-22.7 202.16-22.7Q201.61-22.7 201.21-24.1 200.81-25.5 200.81-28.28 200.81-31.05 201.41-33.27 202.01-35.5 203.01-35.5L203.01-35.5 230.06-35.5Q230.81-35.5 231.08-34.1 231.36-32.7 231.36-30.05 231.36-27.4 230.81-25.05 230.26-22.7 229.31-22.7L229.31-22.7 223.06-22.7 223.06-1.2ZM262.96-2.55Q262.86-1.1 261.44-0.55 260.01 0 256.31 0 252.61 0 250.14-0.68 247.66-1.35 247.66-2.4L247.66-2.4Q247.66-3.6 252.11-17.73 256.56-31.85 257.21-34L257.21-34Q257.46-34.65 261.24-35.08 265.01-35.5 269.34-35.5 273.66-35.5 274.11-34L274.11-34Q283.56-2.6 283.56-2.1 283.56-1.6 282.96-1.1L282.96-1.1Q281.56 0 277.41 0L277.41 0Q268.56 0 268.36-2.1L268.36-2.1 268.01-5.35 263.21-5.35 262.96-2.55ZM264.26-14.85L266.96-14.85 266.21-23.85 265.11-23.85 264.26-14.85ZM315.21 0.4L315.21 0.4Q313.51 0.4 312.06 0.05 310.61-0.3 309.04-1.43 307.46-2.55 306.36-4.4L306.36-4.4Q303.86-8.6 303.86-17.05L303.86-17.05Q303.86-21.7 305.11-25.25 306.36-28.8 308.26-30.78 310.16-32.75 312.81-34 315.46-35.25 317.76-35.63 320.06-36 322.66-36L322.66-36Q328.66-36 331.11-34.98 333.56-33.95 333.56-31.05L333.56-31.05Q333.56-28.75 332.71-26.08 331.86-23.4 330.21-23.4L330.21-23.4Q329.81-23.4 326.81-24.18 323.81-24.95 322.31-24.95L322.31-24.95Q318.01-24.95 318.01-17.7L318.01-17.7Q318.01-14.05 319.01-12.28 320.01-10.5 321.51-10.3L321.51-10.3 321.51-14.8Q321.51-16.05 324.06-17.1 326.61-18.15 328.96-18.15 331.31-18.15 332.39-17.85 333.46-17.55 333.86-17L333.86-17Q334.56-16.1 334.56-15.4L334.56-15.4 334.56-1.55Q334.56-0.9 331.94-0.5 329.31-0.1 326.49-0.1 323.66-0.1 322.91-0.38 322.16-0.65 322.06-1.9L322.06-1.9 321.71-4.85 321.31-4.85Q320.96-2.7 319.54-1.15 318.11 0.4 315.21 0.4ZM383.21 0L383.21 0 362.01 0Q359.56 0 358.71-0.35 357.86-0.7 357.86-1.45L357.86-1.45 357.86-33.1Q357.86-34.4 359.04-34.95 360.21-35.5 363.26-35.5L363.26-35.5 383.36-35.5Q384.41-35.5 384.41-32.02 384.41-28.55 383.96-26.73 383.51-24.9 382.76-24.9L382.76-24.9Q379.51-24.9 371.81-25.55L371.81-25.55 371.81-22.2Q379.21-22.5 381.46-22.5L381.46-22.5Q382.81-22.5 382.81-19.35 382.81-16.2 382.29-14.58 381.76-12.95 380.86-12.95L380.86-12.95 371.81-13.15 371.81-9.95Q380.51-10.6 383.81-10.6L383.81-10.6Q384.86-10.6 384.86-7.1 384.86-3.6 384.41-1.8 383.96 0 383.21 0ZM456.12 0.45L456.12 0.45Q451.97 0.45 448.99-0.33 446.02-1.1 443.52-3.1L443.52-3.1Q438.47-7.05 438.47-18.25L438.47-18.25Q438.47-22.95 439.84-26.45 441.22-29.95 443.67-32L443.67-32Q448.47-36 456.12-36L456.12-36Q460.07-36 462.99-35.3 465.92-34.6 468.52-32.75L468.52-32.75Q473.77-28.95 473.77-18.25L473.77-18.25Q473.77-8.65 469.02-4.1 464.27 0.45 456.12 0.45ZM454.47-8.13Q455.07-7.4 456.12-7.4 457.17-7.4 457.77-8.13 458.37-8.85 458.77-11.23 459.17-13.6 459.17-17.85 459.17-22.1 458.77-24.4 458.37-26.7 457.77-27.4 457.17-28.1 456.12-28.1 455.07-28.1 454.47-27.4 453.87-26.7 453.47-24.4 453.07-22.1 453.07-17.85 453.07-13.6 453.47-11.23 453.87-8.85 454.47-8.13ZM510.77-1.45Q510.77-0.7 507.55-0.35 504.32 0 501.42 0 498.52 0 497.67-0.35 496.82-0.7 496.82-1.45L496.82-1.45 496.82-33.15Q496.82-34.45 498.12-35 499.42-35.55 503.02-35.55L503.02-35.55 521.57-35.55Q522.62-35.55 522.62-31.78 522.62-28 522.15-26.03 521.67-24.05 520.92-24.05L520.92-24.05 510.77-24.55 510.77-21.15Q517.42-21.45 519.67-21.45L519.67-21.45Q520.42-21.45 520.7-20.65 520.97-19.85 520.97-17.57 520.97-15.3 520.47-13.23 519.97-11.15 519.07-11.15L519.07-11.15 510.77-11.45 510.77-1.45ZM602.32 0L602.32 0 581.12 0Q578.67 0 577.82-0.35 576.97-0.7 576.97-1.45L576.97-1.45 576.97-33.1Q576.97-34.4 578.15-34.95 579.32-35.5 582.37-35.5L582.37-35.5 602.47-35.5Q603.52-35.5 603.52-32.02 603.52-28.55 603.07-26.73 602.62-24.9 601.87-24.9L601.87-24.9Q598.62-24.9 590.92-25.55L590.92-25.55 590.92-22.2Q598.32-22.5 600.57-22.5L600.57-22.5Q601.92-22.5 601.92-19.35 601.92-16.2 601.4-14.58 600.87-12.95 599.97-12.95L599.97-12.95 590.92-13.15 590.92-9.95Q599.62-10.6 602.92-10.6L602.92-10.6Q603.97-10.6 603.97-7.1 603.97-3.6 603.52-1.8 603.07 0 602.32 0ZM635.73 0L635.73 0Q632.08 0 628.93-0.63 625.78-1.25 625.78-2.45L625.78-2.45Q625.78-3.15 627.85-7.03 629.93-10.9 634.13-18L634.13-18Q626.63-32.1 626.63-32.8L626.63-32.8Q626.63-33.9 629.8-34.7 632.98-35.5 635.6-35.5 638.23-35.5 639.9-34.7 641.58-33.9 641.73-33.1L641.73-33.1 643.68-24.25 643.93-24.25 645.33-33Q645.38-33.35 646.53-33.95 647.68-34.55 649.6-35.02 651.53-35.5 654.05-35.5 656.58-35.5 658.28-34.9 659.98-34.3 659.98-32.65L659.98-32.65Q659.98-31.8 658.18-27.7 656.38-23.6 652.73-16.3L652.73-16.3Q660.83-3.15 660.83-2.45L660.83-2.45Q660.83 0 654.88 0L654.88 0Q646.03 0 645.38-2.4L645.38-2.4 643.43-9.35 643.13-9.35 641.53-2.4Q640.98 0 635.73 0ZM708.18-0.38Q706.18 0.1 704.1 0.28 702.03 0.45 700.05 0.45 698.08 0.45 697 0.35 695.93 0.25 694.18-0.15 692.43-0.55 690.98-1.25 689.53-1.95 687.9-3.3 686.28-4.65 685.18-6.5L685.18-6.5Q682.63-10.8 682.63-17.6L682.63-17.6Q682.63-22.15 684.05-25.65 685.48-29.15 687.5-31.05 689.53-32.95 692.13-34.1L692.13-34.1Q696.33-36 700.58-36L700.58-36Q706.68-36 709.33-35L709.33-35Q710.53-34.55 711.48-33.6 712.43-32.65 712.43-30.85 712.43-29.05 711.55-26.3 710.68-23.55 709.03-23.55L709.03-23.55Q708.53-23.55 705.33-24.35 702.13-25.15 700.98-25.15L700.98-25.15Q699.23-25.15 698-23.2 696.78-21.25 696.78-17.65 696.78-14.05 697.85-12.05 698.93-10.05 700.68-10.05L700.68-10.05Q701.93-10.05 705.2-11.08 708.48-12.1 709.03-12.1L709.03-12.1Q710.58-12.1 711.45-9.25 712.33-6.4 712.33-4.65 712.33-2.9 711.25-1.88 710.18-0.85 708.18-0.38ZM761.08 0L761.08 0 739.88 0Q737.43 0 736.58-0.35 735.73-0.7 735.73-1.45L735.73-1.45 735.73-33.1Q735.73-34.4 736.91-34.95 738.08-35.5 741.13-35.5L741.13-35.5 761.23-35.5Q762.28-35.5 762.28-32.02 762.28-28.55 761.83-26.73 761.38-24.9 760.63-24.9L760.63-24.9Q757.38-24.9 749.68-25.55L749.68-25.55 749.68-22.2Q757.08-22.5 759.33-22.5L759.33-22.5Q760.68-22.5 760.68-19.35 760.68-16.2 760.16-14.58 759.63-12.95 758.73-12.95L758.73-12.95 749.68-13.15 749.68-9.95Q758.38-10.6 761.68-10.6L761.68-10.6Q762.73-10.6 762.73-7.1 762.73-3.6 762.28-1.8 761.83 0 761.08 0ZM808.58 0L790.23 0Q787.73 0 786.88-0.28 786.03-0.55 786.03-1.2L786.03-1.2 786.03-32.3Q786.03-33.4 788.93-34.48 791.83-35.55 795.43-35.55L795.43-35.55Q798.63-35.55 799.63-34.2L799.63-34.2Q799.98-33.7 799.98-33.2L799.98-33.2 799.98-11.05Q806.08-11.45 809.18-11.45L809.18-11.45Q810.23-11.45 810.23-8.13 810.23-4.8 809.78-2.4 809.33 0 808.58 0L808.58 0ZM855.59 0L837.24 0Q834.74 0 833.89-0.28 833.04-0.55 833.04-1.2L833.04-1.2 833.04-32.3Q833.04-33.4 835.94-34.48 838.84-35.55 842.44-35.55L842.44-35.55Q845.64-35.55 846.64-34.2L846.64-34.2Q846.99-33.7 846.99-33.2L846.99-33.2 846.99-11.05Q853.09-11.45 856.19-11.45L856.19-11.45Q857.24-11.45 857.24-8.13 857.24-4.8 856.79-2.4 856.34 0 855.59 0L855.59 0ZM905.39 0L905.39 0 884.19 0Q881.74 0 880.89-0.35 880.04-0.7 880.04-1.45L880.04-1.45 880.04-33.1Q880.04-34.4 881.21-34.95 882.39-35.5 885.44-35.5L885.44-35.5 905.54-35.5Q906.59-35.5 906.59-32.02 906.59-28.55 906.14-26.73 905.69-24.9 904.94-24.9L904.94-24.9Q901.69-24.9 893.99-25.55L893.99-25.55 893.99-22.2Q901.39-22.5 903.64-22.5L903.64-22.5Q904.99-22.5 904.99-19.35 904.99-16.2 904.46-14.58 903.94-12.95 903.04-12.95L903.04-12.95 893.99-13.15 893.99-9.95Q902.69-10.6 905.99-10.6L905.99-10.6Q907.04-10.6 907.04-7.1 907.04-3.6 906.59-1.8 906.14 0 905.39 0ZM944.29-1.45Q944.29-0.8 941.21-0.4 938.14 0 935.09 0 932.04 0 931.19-0.35 930.34-0.7 930.34-1.45L930.34-1.45 930.34-32.15Q930.34-33.4 933.21-34.45 936.09-35.5 939.74-35.5L939.74-35.5Q941.04-35.5 941.69-35.4L941.69-35.4Q943.39-35.15 944.09-33.25L944.09-33.25 948.89-20.35 949.09-20.35 949.09-32.15Q949.09-33.4 951.94-34.45 954.79-35.5 958.44-35.5L958.44-35.5Q961.59-35.5 962.44-34.3L962.44-34.3Q963.04-33.45 963.04-32.75L963.04-32.75 963.04-1.45Q963.04-0.8 959.96-0.4 956.89 0 953.21 0 949.54 0 949.19-0.95L949.19-0.95 944.54-13.25 944.29-13.25 944.29-1.45ZM1011.89-0.38Q1009.89 0.1 1007.82 0.28 1005.74 0.45 1003.77 0.45 1001.79 0.45 1000.72 0.35 999.64 0.25 997.89-0.15 996.14-0.55 994.69-1.25 993.24-1.95 991.62-3.3 989.99-4.65 988.89-6.5L988.89-6.5Q986.34-10.8 986.34-17.6L986.34-17.6Q986.34-22.15 987.77-25.65 989.19-29.15 991.22-31.05 993.24-32.95 995.84-34.1L995.84-34.1Q1000.04-36 1004.29-36L1004.29-36Q1010.39-36 1013.04-35L1013.04-35Q1014.24-34.55 1015.19-33.6 1016.14-32.65 1016.14-30.85 1016.14-29.05 1015.27-26.3 1014.39-23.55 1012.74-23.55L1012.74-23.55Q1012.24-23.55 1009.04-24.35 1005.84-25.15 1004.69-25.15L1004.69-25.15Q1002.94-25.15 1001.72-23.2 1000.49-21.25 1000.49-17.65 1000.49-14.05 1001.57-12.05 1002.64-10.05 1004.39-10.05L1004.39-10.05Q1005.64-10.05 1008.92-11.08 1012.19-12.1 1012.74-12.1L1012.74-12.1Q1014.29-12.1 1015.17-9.25 1016.04-6.4 1016.04-4.65 1016.04-2.9 1014.97-1.88 1013.89-0.85 1011.89-0.38ZM1064.79 0L1064.79 0 1043.59 0Q1041.14 0 1040.29-0.35 1039.44-0.7 1039.44-1.45L1039.44-1.45 1039.44-33.1Q1039.44-34.4 1040.62-34.95 1041.79-35.5 1044.84-35.5L1044.84-35.5 1064.94-35.5Q1065.99-35.5 1065.99-32.02 1065.99-28.55 1065.54-26.73 1065.09-24.9 1064.34-24.9L1064.34-24.9Q1061.09-24.9 1053.39-25.55L1053.39-25.55 1053.39-22.2Q1060.79-22.5 1063.04-22.5L1063.04-22.5Q1064.39-22.5 1064.39-19.35 1064.39-16.2 1063.87-14.58 1063.34-12.95 1062.44-12.95L1062.44-12.95 1053.39-13.15 1053.39-9.95Q1062.09-10.6 1065.39-10.6L1065.39-10.6Q1066.44-10.6 1066.44-7.1 1066.44-3.6 1065.99-1.8 1065.54 0 1064.79 0Z" opacity="1" transform="matrix(1,0,0,1,0,0)" fill="#ffdc00" class="slogan-text-1" data-fill-palette-color="secondary" id="text-1"></path></svg></g></svg></g></svg></g></svg></g><g transform="matrix(1,0,0,1,155.6452298635977,0)"><svg viewBox="0 0 84.22954027280456 84.23290791500592" height="84.23290791500592" width="84.22954027280456"><g><svg xmlns:x="http://ns.adobe.com/Extensibility/1.0/" xmlns:i="http://ns.adobe.com/AdobeIllustrator/10.0/" xmlns:graph="http://ns.adobe.com/Graphs/1.0/" xmlns="http://www.w3.org/2000/svg" xmlns:xlink="http://www.w3.org/1999/xlink" version="1.1" x="0" y="0" viewBox="10.151751518249512 10.150999069213867 43.69824981689453 43.69999694824219" enable-background="new 0 0 64 64" xml:space="preserve" height="84.23290791500592" width="84.22954027280456" class="icon-icon-0" data-fill-palette-color="accent" id="icon-0"></svg></g></svg></g><g></g></svg></g><defs></defs><mask id="c90dd466-c916-4b67-8cd6-d547b5f3d83c"><g id="SvgjsG2077"><svg viewBox="0 0 395.52 130.04001124508946" height="130.04001124508946" width="395.52"><g><svg viewBox="0 0 395.52 130.04001124508946" height="130.04001124508946" width="395.52"><g transform="matrix(1,0,0,1,0,89.40667409361532)"><svg viewBox="0 0 395.52 40.633337151474144" height="40.633337151474144" width="395.52"><g id="SvgjsG2076"><svg viewBox="0 0 395.52 40.633337151474144" height="40.633337151474144" width="395.52" id="SvgjsSvg2075"><g><svg viewBox="0 0 395.52 21.915680452944834" height="21.915680452944834" width="395.52"><g transform="matrix(1,0,0,1,0,0)"><svg width="395.52" viewBox="5.420000076293945 -38.650001525878906 707.1400146484375 39.19000244140625" height="21.915680452944834" data-palette-color="url(#d9c18ac3-964b-492b-81b3-4ae1c66e54a5)"><path d="M5.42 0L5.42-38.16 25.54-38.16Q29.93-38.16 33.15-37.21 36.38-36.25 38.5-34.46 40.63-32.67 41.66-30.08 42.7-27.49 42.7-24.24L42.7-24.24Q42.7-21.19 41.67-18.6 40.65-16.02 38.54-14.12 36.43-12.23 33.2-11.17 29.98-10.11 25.59-10.11L25.59-10.11 13.16-10.13 13.16 0 5.42 0ZM13.16-16.82L25.73-16.82Q27.93-16.82 29.58-17.35 31.23-17.87 32.34-18.84 33.45-19.8 34-21.18 34.55-22.56 34.55-24.24L34.55-24.24Q34.55-27.64 32.34-29.53 30.13-31.42 25.73-31.42L25.73-31.42 13.16-31.42 13.16-16.82ZM50.39-4.22L50.39-4.22Q50.39-5.2 50.79-6.07 51.19-6.93 51.95-7.58 52.71-8.23 53.78-8.59 54.86-8.96 56.2-8.96L56.2-8.96Q57.54-8.96 58.62-8.59 59.69-8.23 60.43-7.58 61.18-6.93 61.58-6.07 61.98-5.2 61.98-4.22L61.98-4.22Q61.98-3.25 61.58-2.38 61.18-1.51 60.43-0.88 59.69-0.24 58.62 0.13 57.54 0.51 56.2 0.51L56.2 0.51Q54.86 0.51 53.78 0.13 52.71-0.24 51.95-0.88 51.19-1.51 50.79-2.38 50.39-3.25 50.39-4.22ZM72.09 0L72.09-38.16 91.5-38.16Q95.89-38.16 99.12-37.24 102.34-36.33 104.46-34.59 106.59-32.86 107.62-30.37 108.66-27.88 108.66-24.73L108.66-24.73Q108.66-22.61 108.15-20.69 107.64-18.77 106.57-17.16 105.51-15.55 103.9-14.29 102.29-13.04 100.12-12.21L100.12-12.21 108.42 0 98.95 0 91.77-10.84 91.55-10.84 79.83-10.86 79.83 0 72.09 0ZM79.83-17.55L91.69-17.55Q93.89-17.55 95.54-18.07 97.19-18.58 98.3-19.51 99.41-20.43 99.96-21.77 100.51-23.1 100.51-24.73L100.51-24.73Q100.51-27.93 98.31-29.68 96.11-31.42 91.69-31.42L91.69-31.42 79.83-31.42 79.83-17.55ZM117.06-4.22L117.06-4.22Q117.06-5.2 117.46-6.07 117.86-6.93 118.62-7.58 119.38-8.23 120.45-8.59 121.53-8.96 122.87-8.96L122.87-8.96Q124.21-8.96 125.29-8.59 126.36-8.23 127.1-7.58 127.85-6.93 128.25-6.07 128.65-5.2 128.65-4.22L128.65-4.22Q128.65-3.25 128.25-2.38 127.85-1.51 127.1-0.88 126.36-0.24 125.29 0.13 124.21 0.51 122.87 0.51L122.87 0.51Q121.53 0.51 120.45 0.13 119.38-0.24 118.62-0.88 117.86-1.51 117.46-2.38 117.06-3.25 117.06-4.22ZM138.78 0L138.78-38.16 146.52-38.16 160.39-24.24 174.26-38.16 182-38.16 182 0 174.26 0 174.26-27.44 160.39-14.09 146.52-27.44 146.52 0 138.78 0ZM192.1-4.22L192.1-4.22Q192.1-5.2 192.5-6.07 192.91-6.93 193.66-7.58 194.42-8.23 195.5-8.59 196.57-8.96 197.91-8.96L197.91-8.96Q199.26-8.96 200.33-8.59 201.4-8.23 202.15-7.58 202.89-6.93 203.3-6.07 203.7-5.2 203.7-4.22L203.7-4.22Q203.7-3.25 203.3-2.38 202.89-1.51 202.15-0.88 201.4-0.24 200.33 0.13 199.26 0.51 197.91 0.51L197.91 0.51Q196.57 0.51 195.5 0.13 194.42-0.24 193.66-0.88 192.91-1.51 192.5-2.38 192.1-3.25 192.1-4.22ZM213.83 0L213.83-38.16 221.57-38.16 235.43-24.24 249.3-38.16 257.04-38.16 257.04 0 249.3 0 249.3-27.44 235.43-14.09 221.57-27.44 221.57 0 213.83 0ZM267.9 0L267.9-38.16 300.4-38.16 300.4-31.37 275.64-31.37 275.64-23.75 297.57-23.75 297.57-17.38 275.64-17.38 275.64-6.76 300.91-6.76 300.91 0 267.9 0ZM321 0L321-31.37 306.91-31.37 306.91-38.16 342.83-38.16 342.83-31.37 328.74-31.37 328.74 0 321 0ZM346.17 0L364.09-38.16 372.29-38.16 390.75 0 382.62 0 379.57-6.42 357.28-6.42 354.32 0 346.17 0ZM360.23-12.79L376.52-12.79 368.26-30.13 360.23-12.79ZM396.68 0L396.68-38.16 404.42-38.16 404.42-6.79 426.61-6.79 426.61 0 396.68 0ZM448.38-19.31L448.38-19.31Q448.38-23.39 449.92-26.92 451.46-30.44 454.38-33.04 457.29-35.64 461.51-37.13 465.72-38.62 471.04-38.62L471.04-38.62Q475.7-38.62 479.6-37.68 483.49-36.74 486.84-34.81L486.84-34.81 483.27-28.96Q482.27-29.61 480.96-30.13 479.66-30.64 478.18-30.99 476.7-31.35 475.13-31.54 473.55-31.74 472.02-31.74L472.02-31.74Q468.3-31.74 465.4-30.82 462.49-29.91 460.5-28.26 458.51-26.61 457.48-24.33 456.44-22.05 456.44-19.31L456.44-19.31Q456.44-16.48 457.51-14.11 458.59-11.74 460.63-10.02 462.67-8.3 465.61-7.34 468.55-6.37 472.26-6.37L472.26-6.37Q473.94-6.37 475.6-6.62 477.26-6.86 478.82-7.29 480.37-7.71 481.81-8.31 483.25-8.91 484.49-9.62L484.49-9.62 488.06-3.76Q484.93-1.76 480.83-0.62 476.73 0.51 472.11 0.51L472.11 0.51Q466.23 0.51 461.79-1.01 457.34-2.54 454.36-5.21 451.39-7.89 449.88-11.51 448.38-15.14 448.38-19.31ZM496.57 0L496.57-38.16 515.98-38.16Q520.38-38.16 523.6-37.24 526.82-36.33 528.95-34.59 531.07-32.86 532.11-30.37 533.15-27.88 533.15-24.73L533.15-24.73Q533.15-22.61 532.63-20.69 532.12-18.77 531.06-17.16 530-15.55 528.39-14.29 526.77-13.04 524.6-12.21L524.6-12.21 532.9 0 523.43 0 516.25-10.84 516.03-10.84 504.31-10.86 504.31 0 496.57 0ZM504.31-17.55L516.18-17.55Q518.38-17.55 520.02-18.07 521.67-18.58 522.78-19.51 523.89-20.43 524.44-21.77 524.99-23.1 524.99-24.73L524.99-24.73Q524.99-27.93 522.79-29.68 520.6-31.42 516.18-31.42L516.18-31.42 504.31-31.42 504.31-17.55ZM537.39 0L555.31-38.16 563.51-38.16 581.97 0 573.84 0 570.79-6.42 548.5-6.42 545.55 0 537.39 0ZM551.45-12.79L567.74-12.79 559.49-30.13 551.45-12.79ZM587.9 0L587.9-38.16 622.03-38.16 622.03-31.37 595.64-31.37 595.64-21.39 618.05-21.39 618.05-15.01 595.64-15.01 595.64 0 587.9 0ZM641 0L641-31.37 626.91-31.37 626.91-38.16 662.83-38.16 662.83-31.37 648.74-31.37 648.74 0 641 0ZM668.73-5.08L672.86-11.35Q674.93-10.18 677.07-9.24 679.21-8.3 681.5-7.65 683.8-7.01 686.32-6.67 688.85-6.32 691.71-6.32L691.71-6.32Q695.15-6.32 697.56-6.77 699.98-7.23 701.51-8.02 703.03-8.81 703.73-9.91 704.43-11.01 704.43-12.3L704.43-12.3Q704.43-14.38 702.69-15.59 700.96-16.8 697.35-16.8L697.35-16.8Q695.76-16.8 694-16.59 692.24-16.38 690.45-16.14 688.65-15.89 686.91-15.69 685.16-15.48 683.62-15.48L683.62-15.48Q681.06-15.48 678.71-16.14 676.35-16.8 674.53-18.12 672.71-19.43 671.64-21.41 670.56-23.39 670.56-26.03L670.56-26.03Q670.56-27.59 670.99-29.13 671.42-30.66 672.36-32.07 673.3-33.47 674.79-34.68 676.28-35.89 678.39-36.77 680.5-37.65 683.27-38.15 686.04-38.65 689.58-38.65L689.58-38.65Q692.14-38.65 694.73-38.37 697.32-38.09 699.77-37.57 702.23-37.06 704.5-36.34 706.77-35.62 708.72-34.74L708.72-34.74 705.33-28.49Q703.72-29.2 701.86-29.8 700.01-30.4 697.98-30.83 695.95-31.27 693.79-31.53 691.63-31.79 689.39-31.79L689.39-31.79Q686.19-31.79 684.12-31.32 682.06-30.86 680.84-30.14 679.62-29.42 679.14-28.53 678.67-27.64 678.67-26.76L678.67-26.76Q678.67-25.05 680.21-23.96 681.74-22.88 684.89-22.88L684.89-22.88Q686.16-22.88 687.81-23.06 689.46-23.24 691.28-23.46 693.1-23.68 694.99-23.86 696.88-24.05 698.66-24.05L698.66-24.05Q702.03-24.05 704.63-23.29 707.23-22.53 708.99-21.13 710.75-19.73 711.65-17.74 712.56-15.75 712.56-13.28L712.56-13.28Q712.56-9.99 711.03-7.41 709.5-4.83 706.68-3.06 703.86-1.29 699.88-0.38 695.9 0.54 691.02 0.54L691.02 0.54Q687.8 0.54 684.72 0.13 681.65-0.27 678.83-1.01 676.01-1.76 673.46-2.8 670.9-3.83 668.73-5.08L668.73-5.08Z" opacity="1" transform="matrix(1,0,0,1,0,0)" fill="white" class="wordmark-text-0" id="SvgjsPath2074"></path></svg></g></svg></g><g transform="matrix(1,0,0,1,0,27.08944663155424)"><svg viewBox="0 0 395.52 13.543890519919906" height="13.543890519919906" width="395.52"><g transform="matrix(1,0,0,1,0,0)"><svg width="395.52" viewBox="2 -36 1064.43994140625 36.45000076293945" height="13.543890519919906" data-palette-color="#ffdc00"></svg></g></svg></g></svg></g></svg></g><g transform="matrix(1,0,0,1,155.6452298635977,0)"><svg viewBox="0 0 84.22954027280456 84.23290791500592" height="84.23290791500592" width="84.22954027280456"><g><svg xmlns:x="http://ns.adobe.com/Extensibility/1.0/" xmlns:i="http://ns.adobe.com/AdobeIllustrator/10.0/" xmlns:graph="http://ns.adobe.com/Graphs/1.0/" xmlns="http://www.w3.org/2000/svg" xmlns:xlink="http://www.w3.org/1999/xlink" version="1.1" x="0" y="0" viewBox="10.151751518249512 10.150999069213867 43.69824981689453 43.69999694824219" enable-background="new 0 0 64 64" xml:space="preserve" height="84.23290791500592" width="84.22954027280456" class="icon-icon-0" data-fill-palette-color="accent" id="SvgjsSvg2072"></svg></g></svg></g><g></g></svg></g><defs></defs></svg></g></mask><linearGradient x1="0.054" x2="0.941" y1="0.5" y2="0.5" id="d9c18ac3-964b-492b-81b3-4ae1c66e54a5"><stop stop-color="#9c7945" offset="0"></stop><stop stop-color="#faf3aa" offset="0.498"></stop><stop stop-color="#9c7945" offset="1"></stop></linearGradient><rect width="395.52001953125" height="130.04000854492188" fill="url(#d9c18ac3-964b-492b-81b3-4ae1c66e54a5)" mask="url(#c90dd466-c916-4b67-8cd6-d547b5f3d83c)" data-fill-palette-color="primary"></rect><mask id="9ee0ca0b-464e-43de-bbb3-cd044b0c8a3f"><g id="SvgjsG2087"><svg viewBox="0 0 395.52 130.04001124508946" height="130.04001124508946" width="395.52"><g><svg viewBox="0 0 395.52 130.04001124508946" height="130.04001124508946" width="395.52"><g transform="matrix(1,0,0,1,0,89.40667409361532)"><svg viewBox="0 0 395.52 40.633337151474144" height="40.633337151474144" width="395.52"><g id="SvgjsG2086"><svg viewBox="0 0 395.52 40.633337151474144" height="40.633337151474144" width="395.52" id="SvgjsSvg2085"><g><svg viewBox="0 0 395.52 21.915680452944834" height="21.915680452944834" width="395.52"><g transform="matrix(1,0,0,1,0,0)"><svg width="395.52" viewBox="5.420000076293945 -38.650001525878906 707.1400146484375 39.19000244140625" height="21.915680452944834" data-palette-color="url(#d9c18ac3-964b-492b-81b3-4ae1c66e54a5)"></svg></g></svg></g><g transform="matrix(1,0,0,1,0,27.08944663155424)"><svg viewBox="0 0 395.52 13.543890519919906" height="13.543890519919906" width="395.52"><g transform="matrix(1,0,0,1,0,0)"><svg width="395.52" viewBox="2 -36 1064.43994140625 36.45000076293945" height="13.543890519919906" data-palette-color="#ffdc00"></svg></g></svg></g></svg></g></svg></g><g transform="matrix(1,0,0,1,155.6452298635977,0)"><svg viewBox="0 0 84.22954027280456 84.23290791500592" height="84.23290791500592" width="84.22954027280456"><g><svg xmlns:x="http://ns.adobe.com/Extensibility/1.0/" xmlns:i="http://ns.adobe.com/AdobeIllustrator/10.0/" xmlns:graph="http://ns.adobe.com/Graphs/1.0/" xmlns="http://www.w3.org/2000/svg" xmlns:xlink="http://www.w3.org/1999/xlink" version="1.1" x="0" y="0" viewBox="10.151751518249512 10.150999069213867 43.69824981689453 43.69999694824219" enable-background="new 0 0 64 64" xml:space="preserve" height="84.23290791500592" width="84.22954027280456" class="icon-icon-0" data-fill-palette-color="accent" id="SvgjsSvg2083"><g fill="white"><path d="M51.748 16.069c0.416-0.147 0.801-0.376 1.122-0.697 1.169-1.169 1.169-3.073 0-4.242-1.133-1.135-3.11-1.133-4.243 0-0.326 0.327-0.552 0.713-0.696 1.122-2.089-1.364-4.527-2.101-7.081-2.101-3.473 0-6.737 1.353-9.192 3.808l-4.243 4.243c-4.477 4.478-8.892 7.045-12.111 7.046-1.384 0-2.511-0.454-3.445-1.389-0.391-0.391-1.023-0.391-1.414 0s-0.391 1.023 0 1.414c0.002 0.002 0.005 0.005 0.007 0.007l16.328 16.328c-0.538 0.812-0.829 1.761-0.829 2.757 0 1.336 0.52 2.591 1.464 3.535s2.2 1.465 3.536 1.465c0.995 0 1.945-0.291 2.756-0.829l5.015 5.015c0.002 0.003 0.005 0.005 0.007 0.007 0.195 0.195 0.451 0.293 0.707 0.293s0.512-0.098 0.707-0.293c0.391-0.391 0.391-1.023 0-1.414-3.648-3.649 0.53-10.429 5.657-15.557l4.242-4.243c2.455-2.456 3.808-5.72 3.808-9.193C53.849 20.597 53.111 18.159 51.748 16.069zM50.041 12.544c0.189-0.189 0.44-0.293 0.708-0.293 0.267 0 0.518 0.104 0.707 0.293 0.39 0.39 0.39 1.024 0 1.414-0.38 0.379-1.037 0.378-1.415 0C49.651 13.568 49.651 12.934 50.041 12.544zM45.799 19.615c-0.195 0.195-0.451 0.293-0.707 0.293s-0.512-0.098-0.707-0.293c-1.949-1.948-5.122-1.95-7.071 0-0.391 0.391-1.023 0.391-1.414 0s-0.391-1.023 0-1.414c2.729-2.73 7.172-2.729 9.899 0C46.189 18.591 46.189 19.224 45.799 19.615z" fill="white"></path></g></svg></g></svg></g><g></g></svg></g><defs></defs><mask><g id="SvgjsG2082"><svg viewBox="0 0 395.52 130.04001124508946" height="130.04001124508946" width="395.52"><g><svg viewBox="0 0 395.52 130.04001124508946" height="130.04001124508946" width="395.52"><g transform="matrix(1,0,0,1,0,89.40667409361532)"><svg viewBox="0 0 395.52 40.633337151474144" height="40.633337151474144" width="395.52"><g id="SvgjsG2081"><svg viewBox="0 0 395.52 40.633337151474144" height="40.633337151474144" width="395.52" id="SvgjsSvg2080"><g><svg viewBox="0 0 395.52 21.915680452944834" height="21.915680452944834" width="395.52"><g transform="matrix(1,0,0,1,0,0)"><svg width="395.52" viewBox="5.420000076293945 -38.650001525878906 707.1400146484375 39.19000244140625" height="21.915680452944834" data-palette-color="url(#d9c18ac3-964b-492b-81b3-4ae1c66e54a5)"></svg></g></svg></g><g transform="matrix(1,0,0,1,0,27.08944663155424)"><svg viewBox="0 0 395.52 13.543890519919906" height="13.543890519919906" width="395.52"><g transform="matrix(1,0,0,1,0,0)"><svg width="395.52" viewBox="2 -36 1064.43994140625 36.45000076293945" height="13.543890519919906" data-palette-color="#ffdc00"></svg></g></svg></g></svg></g></svg></g><g transform="matrix(1,0,0,1,155.6452298635977,0)"><svg viewBox="0 0 84.22954027280456 84.23290791500592" height="84.23290791500592" width="84.22954027280456"><g><svg xmlns:x="http://ns.adobe.com/Extensibility/1.0/" xmlns:i="http://ns.adobe.com/AdobeIllustrator/10.0/" xmlns:graph="http://ns.adobe.com/Graphs/1.0/" xmlns="http://www.w3.org/2000/svg" xmlns:xlink="http://www.w3.org/1999/xlink" version="1.1" x="0" y="0" viewBox="10.151751518249512 10.150999069213867 43.69824981689453 43.69999694824219" enable-background="new 0 0 64 64" xml:space="preserve" height="84.23290791500592" width="84.22954027280456" class="icon-icon-0" data-fill-palette-color="accent" id="SvgjsSvg2078"></svg></g></svg></g><g></g></svg></g><defs></defs></svg></g></mask></svg></g></mask><linearGradient x1="0.054" x2="0.941" y1="0.5" y2="0.5" id="676b9723-445b-4e3f-87a2-42219ce4a63f"><stop stop-color="#9c7945" offset="0"></stop><stop stop-color="#faf3aa" offset="0.498"></stop><stop stop-color="#9c7945" offset="1"></stop></linearGradient><rect width="395.52001953125" height="130.04000854492188" fill="url(#676b9723-445b-4e3f-87a2-42219ce4a63f)" mask="url(#9ee0ca0b-464e-43de-bbb3-cd044b0c8a3f)" data-fill-palette-color="accent"></rect></svg><rect width="395.52" height="130.04001124508946" fill="none" stroke="none" visibility="hidden"></rect></g></svg></g></svg>